M48
; DRILL file {KiCad (5.1.4)-1} date 02.10.2019 08:10:27
; FORMAT={-:-/ absolute / inch / decimal}
; #@! TF.CreationDate,2019-10-02T08:10:27+02:00
; #@! TF.GenerationSoftware,Kicad,Pcbnew,(5.1.4)-1
; #@! TF.FileFunction,Plated,1,2,PTH
FMAT,2
INCH
T1C0.0315
T2C0.0354
T3C0.0394
T4C0.0400
T5C0.0512
T6C0.0630
T7C0.1260
%
G90
G05
T1
X8.18Y-2.35
X8.68Y-2.35
X8.18Y-4.99
X8.68Y-4.99
X8.18Y-5.43
X8.68Y-5.43
X7.64Y-3.43
X7.64Y-3.53
X7.64Y-3.63
X7.64Y-3.73
X7.64Y-3.83
X7.64Y-3.93
X7.64Y-4.03
X7.64Y-4.13
X7.64Y-4.23
X7.94Y-3.43
X7.94Y-3.53
X7.94Y-3.63
X7.94Y-3.73
X7.94Y-3.83
X7.94Y-3.93
X7.94Y-4.03
X7.94Y-4.13
X7.94Y-4.23
X7.3Y-2.17
X7.3Y-2.67
X5.98Y-3.71
X6.48Y-3.71
X7.13Y-2.17
X7.13Y-2.67
X8.18Y-4.55
X8.68Y-4.55
X5.98Y-4.11
X6.48Y-4.11
X7.13Y-2.93
X7.13Y-3.03
X7.13Y-3.13
X7.13Y-3.23
X7.13Y-3.33
X7.13Y-3.43
X7.13Y-3.53
X7.13Y-3.63
X7.13Y-3.73
X7.13Y-3.83
X7.13Y-3.93
X7.13Y-4.03
X7.13Y-4.13
X7.13Y-4.23
X7.43Y-2.93
X7.43Y-3.03
X7.43Y-3.13
X7.43Y-3.23
X7.43Y-3.33
X7.43Y-3.43
X7.43Y-3.53
X7.43Y-3.63
X7.43Y-3.73
X7.43Y-3.83
X7.43Y-3.93
X7.43Y-4.03
X7.43Y-4.13
X7.43Y-4.23
X7.46Y-2.17
X7.46Y-2.67
X6.6Y-2.82
X6.6Y-2.92
X6.6Y-3.02
X6.6Y-3.12
X6.6Y-3.22
X6.6Y-3.32
X6.6Y-3.42
X6.6Y-3.52
X6.9Y-2.82
X6.9Y-2.92
X6.9Y-3.02
X6.9Y-3.12
X6.9Y-3.22
X6.9Y-3.32
X6.9Y-3.42
X6.9Y-3.52
X8.18Y-4.11
X8.68Y-4.11
X8.18Y-3.23
X8.68Y-3.23
X5.98Y-3.02
X6.48Y-3.02
X7.64Y-1.69
X8.14Y-1.69
X8.18Y-3.67
X8.68Y-3.67
X8.18Y-2.79
X8.68Y-2.79
X5.98Y-2.82
X6.48Y-2.82
X5.98Y-3.91
X6.48Y-3.91
X6.96Y-2.17
X6.96Y-2.67
X6.6Y-3.71
X6.6Y-3.81
X6.6Y-3.91
X6.6Y-4.01
X6.6Y-4.11
X6.6Y-4.21
X6.6Y-4.31
X6.6Y-4.41
X6.9Y-3.71
X6.9Y-3.81
X6.9Y-3.91
X6.9Y-4.01
X6.9Y-4.11
X6.9Y-4.21
X6.9Y-4.31
X6.9Y-4.41
X7.64Y-1.85
X8.14Y-1.85
X5.98Y-3.42
X6.48Y-3.42
X5.98Y-4.31
X6.48Y-4.31
X5.98Y-3.22
X6.48Y-3.22
T2
X8.32Y-5.21
X8.42Y-5.21
X8.32Y-2.57
X8.42Y-2.57
X8.32Y-4.33
X8.42Y-4.33
X8.32Y-2.13
X8.42Y-2.13
X8.32Y-3.01
X8.42Y-3.01
X8.32Y-3.45
X8.42Y-3.45
X8.32Y-3.89
X8.42Y-3.89
X8.32Y-4.77
X8.42Y-4.77
T3
X7.13Y-1.69
X7.13Y-1.79
X7.13Y-1.89
X8.5324Y-4.74
X8.68Y-4.74
X6.83Y-1.69
X6.83Y-1.79
X6.83Y-1.89
X6.83Y-1.99
X8.5324Y-2.54
X8.68Y-2.54
X7.3Y-1.69
X7.3Y-1.79
X7.3Y-1.89
X7.46Y-1.69
X7.46Y-1.79
X7.46Y-1.89
X7.79Y-3.07
X7.89Y-3.07
X7.99Y-3.07
X8.5324Y-3.86
X8.68Y-3.86
X8.5324Y-2.98
X8.68Y-2.98
X6.71Y-4.55
X6.81Y-4.55
X7.79Y-2.92
X7.89Y-2.92
X7.99Y-2.92
X5.95Y-2.52
X6.05Y-2.52
X6.15Y-2.52
X8.5324Y-3.42
X8.68Y-3.42
X6.96Y-1.69
X6.96Y-1.79
X6.96Y-1.89
X6.96Y-1.99
X8.5324Y-5.18
X8.68Y-5.18
X8.5324Y-4.3
X8.68Y-4.3
X8.5324Y-2.1
X8.68Y-2.1
X7.6Y-2.82
X7.6Y-2.92
X7.79Y-2.77
X7.89Y-2.77
X7.99Y-2.77
T4
X7.83Y-2.19
X7.83Y-2.29
X7.83Y-2.39
X7.83Y-2.49
X7.93Y-2.19
X7.93Y-2.29
X7.93Y-2.39
X7.93Y-2.49
T5
X9.1229Y-4.74
X9.3198Y-4.74
X9.5166Y-4.74
X9.1229Y-2.54
X9.3198Y-2.54
X9.5166Y-2.54
X9.1229Y-3.86
X9.3198Y-3.86
X9.5166Y-3.86
X9.1229Y-2.98
X9.3198Y-2.98
X9.5166Y-2.98
X9.1229Y-3.42
X9.3198Y-3.42
X9.5166Y-3.42
X9.1229Y-5.18
X9.3198Y-5.18
X9.5166Y-5.18
X9.1229Y-4.3
X9.3198Y-4.3
X9.5166Y-4.3
X9.1229Y-2.1
X9.3198Y-2.1
X9.5166Y-2.1
T6
X10.06Y-3.87
X10.06Y-4.0078
X10.06Y-4.1456
X10.06Y-4.2834
X10.06Y-4.4212
X10.06Y-4.559
X5.58Y-2.43
X5.58Y-2.5678
X5.58Y-2.7056
X5.58Y-2.8434
X5.58Y-2.9812
X5.58Y-3.119
X5.58Y-3.2568
X5.58Y-3.3946
X5.58Y-3.68
X5.58Y-3.8178
X5.58Y-3.9556
X5.58Y-4.0934
X5.58Y-4.2312
X5.58Y-4.369
X5.58Y-4.5068
X5.58Y-4.6446
X10.07Y-2.88
X10.07Y-3.0178
X10.07Y-3.1556
X10.07Y-3.2934
X10.07Y-3.4312
X10.07Y-3.569
X10.07Y-4.86
X10.07Y-4.9978
X10.07Y-5.1356
X10.07Y-5.2734
X10.07Y-5.4112
X10.07Y-5.549
X10.07Y-1.89
X10.07Y-2.0278
X10.07Y-2.1656
X10.07Y-2.3034
X10.07Y-2.4412
X10.07Y-2.579
X5.58Y-2.01
X5.58Y-2.1478
T7
X8.82Y-1.62
X5.42Y-1.63
X8.88Y-5.53
X5.42Y-5.57
T0
M30
